<?xml version="1.0" encoding="utf-8"?>
<!-- Generator: Adobe Illustrator 13.0.0, SVG Export Plug-In . SVG Version: 6.00 Build 14948)  -->
<!DOCTYPE svg PUBLIC "-//W3C//DTD SVG 1.1//EN" "http://www.w3.org/Graphics/SVG/1.1/DTD/svg11.dtd">
<svg version="1.1" xmlns="http://www.w3.org/2000/svg" xmlns:xlink="http://www.w3.org/1999/xlink" x="0px" y="0px" width="200px"
	 height="100px" viewBox="0 0 600 400" enable-background="new 0 0 600 400" xml:space="preserve">
<g id="Layer_1_copy">
	<g>
		<path fill="#FFFF00" d="M143.007,121.209c-0.851,0-1.195-0.421-1.334-0.775c-0.22-0.562-0.155-1.515,0.2-2.914l0.992-3.883
			c0.297-1.173,0.692-2.168,1.171-2.963c0.477-0.784,1.305-1.716,2.464-2.771c1.159-1.051,2.496-2.006,3.979-2.839
			c1.482-0.834,2.714-1.323,3.666-1.452c0.191-0.024,0.371-0.039,0.531-0.039c0.92,0,1.252,0.428,1.367,0.788
			c0.181,0.556,0.102,1.48-0.241,2.824l-0.026,0.104l-0.094,0.053l-5.296,2.979l-0.509,0.287l0.145-0.566l0.403-1.576
			c0.124-0.491,0.134-0.707,0.13-0.792c-0.029,0.026-0.114,0.057-0.255,0.136c-0.287,0.163-0.5,0.346-0.633,0.546
			c-0.096,0.145-0.246,0.464-0.427,1.171l-1.646,6.449c-0.157,0.615-0.069,0.747-0.067,0.751c0.034-0.004,0.126-0.015,0.317-0.123
			c0.342-0.193,0.603-0.438,0.776-0.725c0.188-0.312,0.371-0.813,0.542-1.489l0.416-1.629l0.026-0.104l0.094-0.053l5.005-2.814
			l0.515-0.289l-0.151,0.57c-0.299,1.134-0.56,1.975-0.798,2.576c-0.242,0.617-0.71,1.378-1.393,2.264
			c-0.68,0.882-1.495,1.721-2.419,2.49c-0.931,0.776-2.032,1.523-3.279,2.224c-1.625,0.915-2.834,1.421-3.7,1.545
			C143.308,121.197,143.151,121.209,143.007,121.209L143.007,121.209z"/>
		<path fill="#603813" d="M154.673,103.824c0.622,0,0.999,0.204,1.13,0.612c0.165,0.508,0.083,1.404-0.245,2.688l-5.296,2.979
			l0.402-1.576c0.14-0.55,0.175-0.888,0.104-1.016c-0.029-0.053-0.08-0.079-0.152-0.079c-0.103,0-0.25,0.054-0.441,0.161
			c-0.324,0.183-0.563,0.391-0.719,0.625c-0.155,0.234-0.309,0.65-0.461,1.248l-1.646,6.45c-0.125,0.488-0.134,0.807-0.03,0.957
			c0.047,0.067,0.117,0.102,0.209,0.102c0.112,0,0.257-0.05,0.435-0.15c0.379-0.213,0.669-0.485,0.868-0.815
			c0.199-0.33,0.39-0.848,0.57-1.556l0.415-1.628l5.004-2.815c-0.288,1.098-0.55,1.947-0.787,2.547
			c-0.236,0.601-0.69,1.335-1.359,2.203c-0.67,0.869-1.464,1.686-2.382,2.452c-0.918,0.767-1.998,1.5-3.24,2.198
			c-1.584,0.891-2.789,1.397-3.613,1.517c-0.156,0.022-0.302,0.034-0.436,0.034c-0.572,0-0.939-0.206-1.101-0.618
			c-0.2-0.508-0.129-1.428,0.21-2.761l0.991-3.884c0.296-1.161,0.677-2.125,1.143-2.894c0.465-0.768,1.272-1.673,2.419-2.715
			s2.457-1.978,3.931-2.807c1.464-0.824,2.657-1.297,3.577-1.421C154.356,103.836,154.522,103.824,154.673,103.824 M154.673,103.324
			L154.673,103.324c-0.172,0-0.362,0.014-0.563,0.041c-0.994,0.134-2.222,0.618-3.756,1.481c-1.498,0.842-2.851,1.809-4.022,2.873
			c-1.194,1.085-2.015,2.009-2.51,2.826c-0.49,0.809-0.894,1.828-1.2,3.03l-0.991,3.884c-0.375,1.471-0.435,2.445-0.191,3.067
			c0.137,0.35,0.523,0.936,1.566,0.936c0.157,0,0.328-0.014,0.507-0.04c0.894-0.129,2.132-0.645,3.787-1.575
			c1.261-0.709,2.376-1.466,3.315-2.25c0.942-0.786,1.769-1.637,2.458-2.53c0.706-0.915,1.173-1.675,1.429-2.325
			c0.243-0.616,0.514-1.492,0.805-2.604l0.299-1.141l-1.028,0.578l-5.004,2.816l-0.187,0.105l-0.053,0.207l-0.415,1.628
			c-0.208,0.816-0.394,1.223-0.513,1.42c-0.147,0.244-0.355,0.443-0.638,0.61c0.013-0.083,0.034-0.188,0.067-0.321l1.646-6.45
			c0.181-0.709,0.324-0.991,0.394-1.095c0.083-0.124,0.206-0.243,0.368-0.354c-0.017,0.076-0.037,0.164-0.063,0.264l-0.402,1.576
			l-0.289,1.132l1.019-0.573l5.296-2.98l0.187-0.104l0.053-0.208c0.36-1.409,0.435-2.352,0.236-2.965
			C156.138,103.845,155.745,103.324,154.673,103.324L154.673,103.324z"/>
	</g>
	<g>
		<path fill="#FF0000" d="M157.681,113.555c-0.462,0-0.824-0.075-1.105-0.228c-0.456-0.249-0.726-0.653-0.806-1.2
			c-0.071-0.502,0.033-1.294,0.32-2.423l0.834-3.271c0.309-1.21,0.749-2.24,1.304-3.058c0.562-0.826,1.402-1.631,2.494-2.396
			c1.093-0.763,2.419-1.426,3.94-1.971c1.286-0.462,2.374-0.73,3.235-0.799c0.189-0.014,0.368-0.021,0.535-0.021
			c0.641,0,1.119,0.104,1.466,0.315c0.45,0.276,0.718,0.645,0.804,1.092c0.075,0.417-0.004,1.08-0.246,2.028l-0.797,3.127
			c-0.295,1.159-0.604,2.057-0.917,2.667c-0.312,0.614-0.818,1.269-1.507,1.949c-0.682,0.675-1.501,1.292-2.435,1.831
			c-0.928,0.537-1.972,1.013-3.104,1.418c-1.251,0.449-2.313,0.742-3.155,0.871C158.222,113.533,157.937,113.555,157.681,113.555
			L157.681,113.555z M164.731,101.598c-0.045,0.004-0.132,0.016-0.283,0.071c-0.285,0.102-0.494,0.238-0.623,0.411
			c-0.089,0.122-0.24,0.434-0.441,1.208l-1.469,5.757c-0.195,0.773-0.15,0.939-0.146,0.956c0.045-0.031,0.128-0.043,0.279-0.096
			c0.287-0.104,0.492-0.24,0.608-0.401c0.132-0.179,0.265-0.531,0.399-1.052l1.5-5.881
			C164.713,101.947,164.733,101.695,164.731,101.598L164.731,101.598z"/>
		<path fill="#603813" d="M168.439,98.438c0.582,0,1.025,0.093,1.329,0.28c0.389,0.239,0.618,0.547,0.688,0.924
			c0.069,0.377-0.011,1.017-0.242,1.921l-0.797,3.125c-0.293,1.147-0.591,2.019-0.896,2.615c-0.305,0.595-0.792,1.225-1.462,1.887
			c-0.67,0.663-1.465,1.259-2.385,1.791c-0.921,0.531-1.942,0.998-3.063,1.399c-1.252,0.449-2.289,0.734-3.109,0.857
			c-0.303,0.045-0.577,0.068-0.82,0.068c-0.416,0-0.745-0.066-0.987-0.198c-0.384-0.208-0.609-0.547-0.676-1.015
			c-0.067-0.468,0.037-1.244,0.313-2.328l0.834-3.27c0.302-1.186,0.725-2.179,1.27-2.979c0.543-0.801,1.353-1.578,2.427-2.33
			c1.074-0.752,2.369-1.4,3.882-1.942c1.271-0.456,2.328-0.717,3.172-0.784C168.103,98.445,168.276,98.438,168.439,98.438
			 M161.768,110.22c0.094,0,0.215-0.026,0.363-0.079c0.336-0.121,0.58-0.284,0.729-0.489c0.149-0.205,0.295-0.583,0.436-1.135
			l1.501-5.884c0.167-0.654,0.221-1.048,0.161-1.181c-0.031-0.07-0.101-0.105-0.208-0.105c-0.097,0-0.226,0.029-0.385,0.086
			c-0.336,0.121-0.582,0.286-0.737,0.496c-0.156,0.21-0.317,0.643-0.484,1.296l-1.469,5.76c-0.154,0.603-0.198,0.975-0.132,1.118
			C161.578,110.181,161.653,110.22,161.768,110.22 M168.439,97.938c-0.175,0-0.362,0.008-0.561,0.023
			c-0.884,0.07-1.995,0.343-3.302,0.812c-1.547,0.555-2.893,1.229-4,2.003c-1.121,0.785-1.98,1.612-2.554,2.459
			c-0.574,0.844-1.025,1.9-1.34,3.137l-0.834,3.27c-0.295,1.158-0.402,1.983-0.324,2.522c0.089,0.622,0.412,1.1,0.933,1.383
			c0.319,0.174,0.72,0.258,1.226,0.258c0.267,0,0.568-0.025,0.894-0.073c0.85-0.127,1.927-0.423,3.204-0.881
			c1.145-0.411,2.202-0.894,3.144-1.437c0.953-0.55,1.79-1.179,2.486-1.868c0.704-0.696,1.228-1.374,1.555-2.014
			c0.324-0.634,0.63-1.523,0.936-2.719l0.797-3.125c0.254-0.998,0.333-1.676,0.249-2.135c-0.096-0.521-0.404-0.944-0.917-1.26
			C169.642,98.053,169.122,97.938,168.439,97.938L168.439,97.938z M162.042,109.64c0.021-0.125,0.057-0.297,0.117-0.531l1.469-5.76
			c0.204-0.8,0.349-1.051,0.401-1.123c0.082-0.111,0.22-0.207,0.412-0.287c-0.025,0.136-0.065,0.321-0.128,0.57l-1.501,5.884
			c-0.163,0.638-0.293,0.878-0.356,0.964C162.379,109.463,162.237,109.56,162.042,109.64L162.042,109.64z"/>
	</g>
	<g>
		<path fill="#00FF00" d="M172.225,108.62c-0.307,0-0.589-0.037-0.839-0.104c-0.639-0.175-1.011-0.486-1.11-0.929
			c-0.085-0.391-0.012-1.027,0.224-1.946l1.415-5.546c0.242-0.949,0.5-1.626,0.789-2.074c0.295-0.458,0.797-0.905,1.537-1.364
			c0.722-0.451,1.539-0.785,2.432-0.996c0.587-0.138,1.124-0.208,1.596-0.208c0.089,0,0.179,0.002,0.264,0.006
			c0.429,0.022,0.817,0.108,1.163,0.254l0.779-3.062l0.037-0.148l0.148-0.035l5.437-1.285l0.4-0.094l-0.102,0.398l-3.688,14.458
			l-0.037,0.148l-0.148,0.034l-5.435,1.285l-0.4,0.093l0.102-0.398l0.044-0.179c-0.433,0.305-0.874,0.571-1.317,0.797
			c-0.632,0.319-1.279,0.559-1.927,0.714C173.085,108.559,172.628,108.62,172.225,108.62L172.225,108.62z M179.13,97.594
			l-0.065,0.012c-0.069,0-0.161,0.012-0.27,0.039c-0.271,0.065-0.466,0.159-0.576,0.281c-0.081,0.087-0.205,0.305-0.341,0.832
			l-1.48,5.802c-0.148,0.587-0.105,0.724-0.102,0.738c0.112-0.016,0.189-0.028,0.281-0.051c0.292-0.067,0.504-0.179,0.63-0.333
			c0.075-0.093,0.233-0.376,0.443-1.189l1.399-5.481C179.181,97.724,179.132,97.6,179.13,97.594L179.13,97.594z"/>
		<path fill="#603813" d="M186.151,91.428l-3.688,14.457l-5.435,1.284l0.219-0.859c-0.611,0.481-1.227,0.878-1.846,1.193
			c-0.62,0.314-1.243,0.546-1.871,0.694c-0.483,0.114-0.917,0.171-1.302,0.171c-0.287,0-0.546-0.032-0.778-0.095
			c-0.543-0.148-0.854-0.396-0.93-0.741c-0.076-0.345-0.003-0.956,0.22-1.831l1.415-5.545c0.232-0.911,0.485-1.578,0.757-2
			s0.759-0.852,1.46-1.289c0.701-0.438,1.487-0.758,2.357-0.964c0.569-0.134,1.084-0.202,1.544-0.202
			c0.083,0,0.164,0.002,0.243,0.007c0.52,0.028,0.967,0.15,1.342,0.364l0.857-3.36L186.151,91.428 M176.349,105.531
			c0.08,0,0.175-0.013,0.286-0.04c0.35-0.083,0.604-0.222,0.765-0.419c0.16-0.197,0.324-0.626,0.492-1.287l1.399-5.482
			c0.111-0.434,0.129-0.713,0.055-0.835c-0.045-0.074-0.138-0.111-0.279-0.111c-0.09,0-0.201,0.015-0.33,0.046
			c-0.322,0.076-0.557,0.194-0.703,0.354c-0.146,0.161-0.279,0.473-0.397,0.938l-1.48,5.804c-0.123,0.482-0.151,0.787-0.082,0.913
			C176.118,105.491,176.209,105.531,176.349,105.531 M186.84,90.752l-0.803,0.189l-5.435,1.285l-0.295,0.07l-0.075,0.293
			l-0.713,2.792c-0.299-0.096-0.625-0.153-0.975-0.173c-0.088-0.005-0.178-0.007-0.271-0.007c-0.496,0-1.054,0.073-1.659,0.215
			c-0.921,0.218-1.765,0.563-2.507,1.027c-0.772,0.481-1.301,0.953-1.616,1.442c-0.304,0.472-0.573,1.175-0.821,2.147l-1.415,5.545
			c-0.249,0.974-0.32,1.629-0.224,2.062c0.119,0.54,0.552,0.915,1.286,1.116c0.275,0.075,0.581,0.112,0.91,0.112
			c0.422,0,0.899-0.062,1.417-0.185c0.662-0.156,1.329-0.403,1.982-0.734c0.268-0.136,0.536-0.288,0.802-0.454l-0.089,0.35
			l0.803-0.189l5.435-1.284l0.295-0.07l0.075-0.293l3.688-14.457L186.84,90.752L186.84,90.752z M176.559,104.995
			c0.015-0.091,0.04-0.213,0.081-0.374l1.48-5.804c0.136-0.534,0.251-0.689,0.283-0.725c0.042-0.047,0.158-0.136,0.447-0.204
			c0.007-0.001,0.013-0.003,0.02-0.004c-0.013,0.075-0.033,0.171-0.064,0.295l-1.399,5.482c-0.209,0.821-0.356,1.047-0.396,1.096
			C176.93,104.858,176.773,104.94,176.559,104.995L176.559,104.995z"/>
	</g>
	<g>
		<path fill="#0000FF" d="M188.356,104.743c-0.303,0-0.587-0.014-0.855-0.042c-0.825-0.085-1.425-0.285-1.837-0.604
			c-0.417-0.323-0.668-0.722-0.748-1.183c-0.075-0.435-0.006-1.065,0.213-1.925l0.815-3.188c0.252-0.99,0.662-1.815,1.221-2.455
			c0.559-0.636,1.352-1.181,2.357-1.622c0.983-0.433,2.087-0.742,3.282-0.92c0.715-0.106,1.37-0.159,1.94-0.159
			c0.594,0,1.12,0.057,1.563,0.173c0.915,0.234,1.508,0.661,1.764,1.264c0.252,0.587,0.232,1.418-0.057,2.544l-0.37,1.451
			l-0.041,0.163l-0.165,0.024l-6.436,0.953l-0.563,2.203c-0.145,0.567-0.112,0.721-0.104,0.748c0.002-0.002,0.002-0.002,0.002-0.002
			c0.01,0,0.046,0.014,0.132,0.014c0.055,0,0.118-0.006,0.187-0.016c0.323-0.047,0.557-0.152,0.695-0.315
			c0.106-0.122,0.264-0.398,0.425-1.026l0.37-1.445l0.041-0.161l0.165-0.024l4.833-0.717l0.372-0.055l-0.093,0.364l-0.206,0.809
			c-0.181,0.709-0.384,1.25-0.62,1.652c-0.242,0.413-0.668,0.87-1.268,1.363c-0.604,0.5-1.319,0.917-2.125,1.238
			c-0.803,0.321-1.78,0.569-2.906,0.735C189.616,104.688,188.95,104.743,188.356,104.743L188.356,104.743z M192.756,95.19
			c-0.041,0-0.085,0.004-0.134,0.012c-0.376,0.055-0.506,0.158-0.548,0.213c-0.045,0.057-0.169,0.272-0.37,1.059l-0.112,0.437
			l0.953-0.143l0.165-0.638c0.191-0.754,0.15-0.918,0.145-0.935c0,0.002,0,0.002-0.002,0.002
			C192.841,95.198,192.809,95.19,192.756,95.19L192.756,95.19z"/>
		<path fill="#603813" d="M194.744,92.896c0.576,0,1.076,0.055,1.501,0.164c0.839,0.217,1.372,0.59,1.597,1.12
			c0.225,0.53,0.203,1.325-0.068,2.385l-0.37,1.451l-6.601,0.978l-0.604,2.366c-0.126,0.495-0.153,0.805-0.08,0.932
			c0.053,0.093,0.171,0.14,0.353,0.14c0.066,0,0.141-0.006,0.224-0.019c0.387-0.058,0.67-0.191,0.849-0.4
			c0.179-0.208,0.338-0.585,0.477-1.129l0.368-1.442l4.834-0.717l-0.206,0.808c-0.172,0.676-0.37,1.205-0.593,1.587
			c-0.223,0.381-0.627,0.814-1.211,1.297c-0.585,0.483-1.272,0.883-2.061,1.198c-0.789,0.315-1.739,0.555-2.85,0.72
			c-0.714,0.106-1.361,0.158-1.941,0.158c-0.295,0-0.573-0.013-0.833-0.041c-0.773-0.081-1.343-0.265-1.711-0.551
			c-0.368-0.287-0.586-0.63-0.654-1.029c-0.068-0.4,0.001-1.006,0.209-1.82l0.813-3.189c0.244-0.957,0.634-1.74,1.17-2.351
			c0.537-0.611,1.292-1.13,2.268-1.558c0.975-0.427,2.048-0.728,3.217-0.901C193.547,92.948,194.182,92.896,194.744,92.896
			 M191.257,97.214l1.489-0.221l0.204-0.8c0.144-0.566,0.191-0.924,0.141-1.076c-0.04-0.118-0.151-0.177-0.334-0.177
			c-0.051,0-0.108,0.005-0.171,0.014c-0.354,0.052-0.59,0.155-0.71,0.308c-0.12,0.152-0.258,0.537-0.415,1.152L191.257,97.214
			 M194.744,92.396c-0.584,0-1.25,0.054-1.977,0.162c-1.209,0.18-2.334,0.496-3.345,0.938c-1.039,0.455-1.861,1.022-2.443,1.686
			c-0.586,0.668-1.016,1.528-1.278,2.557l-0.813,3.189c-0.228,0.89-0.299,1.554-0.218,2.028c0.09,0.525,0.373,0.976,0.84,1.339
			c0.449,0.349,1.092,0.563,1.966,0.654c0.277,0.029,0.575,0.043,0.886,0.043c0.604,0,1.281-0.055,2.015-0.164
			c1.145-0.17,2.141-0.422,2.961-0.75c0.833-0.332,1.57-0.762,2.194-1.276c0.635-0.525,1.068-0.993,1.325-1.431
			c0.25-0.428,0.46-0.989,0.646-1.716l0.206-0.808l0.186-0.729h0l0.365-1.431c0.302-1.18,0.316-2.064,0.044-2.704
			c-0.289-0.678-0.939-1.152-1.933-1.408C195.906,92.457,195.359,92.396,194.744,92.396L194.744,92.396z M192.27,95.57
			c0,0,0.065-0.064,0.326-0.111c-0.019,0.123-0.055,0.317-0.13,0.61l-0.122,0.478l-0.417,0.062l0.018-0.071
			C192.146,95.753,192.258,95.587,192.27,95.57L192.27,95.57z M191.205,99.44l0.695-0.103l-0.363,1.423
			c-0.156,0.612-0.3,0.844-0.372,0.927c-0.122,0.143-0.362,0.204-0.543,0.231c-0.01,0.001-0.02,0.003-0.029,0.004
			c0.014-0.097,0.04-0.239,0.091-0.439L191.205,99.44L191.205,99.44z"/>
	</g>
	<g>
		<path d="M197.243,106.507l0.083-0.328l5.106-20.018l0.045-0.179l0.186-0.01l8.027-0.403c1.024-0.051,1.955-0.077,2.769-0.077
			c1.206,0,2.197,0.057,2.948,0.173c1.297,0.2,2.28,0.699,2.923,1.48c0.662,0.81,0.757,2.093,0.293,3.921
			c-0.313,1.224-0.843,2.109-1.574,2.633c-0.525,0.376-1.313,0.698-2.388,0.977c1.104,0.224,1.847,0.572,2.25,1.053
			c0.554,0.662,0.656,1.698,0.303,3.074l-0.472,1.855c-0.354,1.39-0.874,2.451-1.545,3.153c-0.674,0.707-1.596,1.22-2.742,1.521
			c-1.12,0.295-3.329,0.527-6.566,0.69l-9.309,0.468L197.243,106.507L197.243,106.507z M208.113,97.056l-1.295,5.078
			c1.111-0.102,1.592-0.267,1.8-0.393c0.305-0.186,0.556-0.654,0.743-1.391l0.476-1.867c0.285-1.107,0.083-1.266,0.076-1.272
			c-0.053-0.037-0.312-0.161-1.419-0.161C208.374,97.05,208.248,97.052,208.113,97.056L208.113,97.056z M210.045,89.486
			l-1.004,3.934c0.188-0.012,0.342-0.022,0.464-0.029c0.906-0.047,1.289-0.236,1.45-0.387c0.136-0.128,0.425-0.568,0.804-2.052
			c0.187-0.741,0.132-1.03,0.083-1.136c-0.079-0.169-0.206-0.265-0.397-0.299c-0.102-0.02-0.315-0.042-0.751-0.042
			C210.505,89.474,210.29,89.478,210.045,89.486L210.045,89.486z"/>
		<path fill="#603813" d="M213.449,85.742c1.205,0,2.177,0.057,2.919,0.17c1.241,0.19,2.164,0.654,2.769,1.392
			c0.604,0.738,0.686,1.972,0.244,3.702c-0.298,1.169-0.79,2-1.475,2.489s-1.893,0.9-3.626,1.231
			c1.792,0.179,2.938,0.567,3.439,1.165s0.586,1.548,0.254,2.851l-0.473,1.855c-0.345,1.353-0.839,2.367-1.483,3.042
			c-0.645,0.676-1.52,1.159-2.625,1.451c-1.106,0.292-3.278,0.519-6.515,0.682l-9.309,0.469l5.106-20.017l8.029-0.404
			C211.723,85.768,212.639,85.742,213.449,85.742 M208.713,93.694c0.346-0.025,0.615-0.043,0.806-0.053
			c0.79-0.04,1.325-0.19,1.606-0.453c0.28-0.262,0.572-0.987,0.875-2.174c0.16-0.626,0.183-1.061,0.068-1.303
			c-0.114-0.242-0.306-0.389-0.576-0.441c-0.164-0.031-0.43-0.047-0.797-0.047c-0.239,0-0.521,0.007-0.847,0.02L208.713,93.694
			 M206.49,102.411c1.14-0.082,1.893-0.234,2.258-0.456c0.364-0.222,0.65-0.736,0.856-1.544l0.477-1.867
			c0.218-0.857,0.21-1.37-0.023-1.537c-0.194-0.138-0.713-0.207-1.561-0.207c-0.178,0-0.371,0.003-0.578,0.009L206.49,102.411
			 M213.449,85.242c-0.815,0-1.748,0.026-2.771,0.078l-8.029,0.404l-0.368,0.019L202.19,86.1l-5.106,20.017l-0.167,0.657
			l0.677-0.034l9.309-0.469c3.3-0.166,5.464-0.394,6.617-0.698c1.191-0.314,2.153-0.85,2.859-1.589
			c0.701-0.735,1.242-1.833,1.606-3.264l0.473-1.855c0.373-1.462,0.253-2.571-0.355-3.296c-0.317-0.377-0.817-0.679-1.509-0.907
			c0.679-0.227,1.21-0.479,1.604-0.76c0.781-0.559,1.342-1.491,1.668-2.772c0.488-1.911,0.376-3.266-0.342-4.142
			c-0.682-0.833-1.719-1.361-3.08-1.569C215.68,85.301,214.672,85.242,213.449,85.242L213.449,85.242z M210.241,89.73
			c0.167-0.004,0.318-0.007,0.455-0.007c0.439,0,0.629,0.024,0.704,0.038c0.112,0.021,0.171,0.066,0.217,0.163
			c0.003,0.008,0.092,0.209-0.101,0.966c-0.388,1.52-0.659,1.863-0.732,1.932c-0.107,0.1-0.417,0.275-1.29,0.319
			c-0.039,0.002-0.081,0.004-0.126,0.007L210.241,89.73L210.241,89.73z M208.309,97.301c0.064,0,0.127-0.001,0.188-0.001
			c0.813,0,1.125,0.067,1.232,0.101c0.018,0.093,0.034,0.365-0.132,1.02l-0.477,1.866c-0.225,0.882-0.492,1.156-0.631,1.241
			c-0.134,0.082-0.478,0.218-1.338,0.319L208.309,97.301L208.309,97.301z"/>
	</g>
	<g>
		<path fill="#FFFFFF" d="M224.704,102.644l-0.202-0.006l-5.152-0.196l-0.308-0.012l0.075-0.299l2.791-10.939l0.051-0.196
			l0.202,0.006l5.151,0.196l0.353,0.014l-0.13,0.328l-0.206,0.518c0.891-0.62,1.92-0.934,3.068-0.942l0.324-0.002l-0.08,0.314
			l-0.98,3.851l-0.051,0.196l-0.202-0.006c-0.184-0.008-0.361-0.013-0.528-0.013c-0.654,0-1.17,0.057-1.531,0.167
			c-0.42,0.128-0.705,0.312-0.85,0.548c-0.114,0.186-0.318,0.677-0.642,1.957l-1.103,4.32L224.704,102.644L224.704,102.644z"/>
		<path fill="#603813" d="M222.151,91.253l5.151,0.196l-0.571,1.431c1.011-1.001,2.233-1.506,3.669-1.513l-0.982,3.85
			c-0.185-0.007-0.361-0.011-0.529-0.011c-0.686,0-1.224,0.06-1.612,0.179c-0.485,0.148-0.815,0.367-0.992,0.657
			c-0.177,0.29-0.4,0.965-0.671,2.026l-1.102,4.319l-5.152-0.196L222.151,91.253 M221.767,90.738l-0.1,0.392l-2.791,10.938
			l-0.153,0.6l0.619,0.023l5.152,0.196l0.404,0.016l0.1-0.392l1.102-4.319c0.337-1.321,0.529-1.75,0.613-1.889
			c0.111-0.181,0.35-0.329,0.711-0.439c0.34-0.104,0.833-0.157,1.466-0.157c0.162,0,0.332,0.003,0.51,0.01l0.404,0.016l0.1-0.392
			l0.982-3.85l0.16-0.626l-0.647,0.003c-0.932,0.004-1.79,0.205-2.563,0.597l0.195-0.487l-0.708-0.027l-5.151-0.196L221.767,90.738
			L221.767,90.738z"/>
	</g>
	<g>
		<path fill="#F7931E" d="M235.215,102.756c-0.41,0-0.861-0.024-1.339-0.076c-0.963-0.102-1.805-0.286-2.5-0.547
			c-0.714-0.266-1.253-0.594-1.603-0.976c-0.357-0.388-0.571-0.807-0.641-1.243c-0.067-0.427-0.006-1,0.186-1.751l0.712-2.79
			c0.225-0.882,0.594-1.57,1.098-2.045c0.504-0.478,1.214-0.813,2.115-0.994c0.539-0.11,1.121-0.166,1.723-0.166
			c0.382,0,0.776,0.022,1.182,0.065c1.284,0.135,2.323,0.413,3.088,0.823c0.792,0.424,1.305,0.947,1.523,1.549
			c0.216,0.592,0.2,1.386-0.049,2.359l-0.323,1.27l-0.053,0.21l-0.216-0.022l-5.591-0.592l-0.476,1.859
			c-0.141,0.549-0.087,0.68-0.085,0.686c0.012,0.026,0.094,0.08,0.308,0.102c0.057,0.006,0.11,0.01,0.159,0.01
			c0.178,0,0.306-0.039,0.384-0.115c0.071-0.069,0.21-0.271,0.351-0.829l0.322-1.263l0.055-0.21l0.214,0.022l4.252,0.451l0.288,0.03
			l-0.071,0.28l-0.18,0.707c-0.159,0.626-0.341,1.09-0.553,1.418c-0.216,0.339-0.59,0.669-1.143,1.01
			c-0.541,0.331-1.182,0.56-1.9,0.676C236.081,102.725,235.664,102.756,235.215,102.756L235.215,102.756z M235.05,95.783
			l0.804,0.085l0.126-0.49c0.165-0.643,0.132-0.813,0.125-0.841c-0.014-0.049-0.129-0.08-0.231-0.09
			c-0.059-0.006-0.114-0.01-0.165-0.01c-0.147,0-0.227,0.028-0.249,0.053c-0.019,0.02-0.125,0.163-0.304,0.872L235.05,95.783
			L235.05,95.783z"/>
		<path fill="#603813" d="M234.97,92.419c0.372,0,0.755,0.021,1.152,0.063c1.258,0.133,2.257,0.398,2.996,0.794
			c0.739,0.396,1.208,0.869,1.407,1.416c0.199,0.547,0.18,1.285-0.057,2.212l-0.324,1.269l-5.807-0.614l-0.528,2.07
			c-0.11,0.433-0.133,0.717-0.069,0.852c0.064,0.135,0.233,0.217,0.507,0.246c0.064,0.007,0.126,0.01,0.184,0.01
			c0.248,0,0.435-0.063,0.562-0.187c0.157-0.154,0.296-0.469,0.418-0.945l0.322-1.262l4.252,0.45l-0.18,0.707
			c-0.151,0.591-0.325,1.04-0.521,1.345c-0.195,0.306-0.55,0.616-1.064,0.932c-0.514,0.316-1.117,0.53-1.811,0.642
			c-0.36,0.058-0.758,0.087-1.194,0.087c-0.405,0-0.842-0.025-1.313-0.075c-0.947-0.1-1.761-0.277-2.441-0.532
			c-0.68-0.255-1.183-0.559-1.506-0.912c-0.324-0.353-0.517-0.724-0.577-1.113c-0.06-0.389,0-0.939,0.182-1.651l0.712-2.791
			c0.213-0.837,0.555-1.479,1.026-1.925s1.136-0.756,1.993-0.93C233.819,92.472,234.378,92.419,234.97,92.419 M236.044,96.14
			l0.179-0.7c0.126-0.495,0.167-0.819,0.123-0.972c-0.044-0.153-0.193-0.243-0.444-0.269c-0.069-0.007-0.134-0.011-0.193-0.011
			c-0.206,0-0.349,0.045-0.431,0.134c-0.105,0.115-0.227,0.441-0.364,0.98l-0.178,0.7L236.044,96.14 M234.97,91.919
			c-0.622,0-1.22,0.057-1.776,0.169c-0.947,0.191-1.7,0.547-2.238,1.057c-0.539,0.511-0.932,1.239-1.167,2.165l-0.712,2.79
			c-0.2,0.785-0.263,1.391-0.191,1.851c0.076,0.488,0.313,0.95,0.703,1.375c0.38,0.415,0.937,0.756,1.699,1.042
			c0.717,0.268,1.579,0.457,2.563,0.561c0.486,0.052,0.945,0.078,1.365,0.078c0.461,0,0.89-0.031,1.274-0.093
			c0.755-0.122,1.425-0.36,1.993-0.709c0.585-0.359,0.985-0.715,1.224-1.089c0.226-0.351,0.417-0.839,0.583-1.49l0.18-0.708
			l0.051-0.201l0.107-0.419l0.324-1.269c0.265-1.037,0.279-1.857,0.042-2.507c-0.242-0.664-0.793-1.231-1.64-1.685
			c-0.793-0.426-1.863-0.712-3.18-0.851C235.763,91.941,235.357,91.919,234.97,91.919L234.97,91.919z M235.631,94.692
			c0.018-0.002,0.043-0.004,0.076-0.004c0.043,0,0.09,0.003,0.14,0.008c0.004,0,0.009,0.001,0.013,0.001
			c-0.009,0.098-0.037,0.287-0.122,0.619l-0.072,0.28l-0.305-0.032l0.036-0.14C235.514,94.968,235.593,94.771,235.631,94.692
			L235.631,94.692z M234.203,100.215c0.008-0.072,0.028-0.218,0.09-0.462l0.421-1.65l0.549,0.058l-0.015,0.06l-0.322,1.262
			c-0.144,0.563-0.27,0.697-0.283,0.711c-0.021,0.021-0.089,0.044-0.212,0.044c-0.042,0-0.085-0.002-0.131-0.007
			C234.259,100.226,234.228,100.22,234.203,100.215L234.203,100.215z"/>
	</g>
	<g>
		<path fill="#93278F" d="M249.11,104.056l-0.231-0.045l-3.695-0.699l-0.262-0.049l0.065-0.257l0.033-0.131
			c-0.194,0.088-0.402,0.153-0.623,0.196c-0.194,0.037-0.401,0.057-0.617,0.057c-0.264,0-0.548-0.028-0.844-0.086
			c-0.699-0.133-1.316-0.388-1.833-0.756c-0.583-0.415-0.758-1.098-0.517-2.032l0.169-0.674c0.174-0.687,0.477-1.136,0.897-1.336
			c0.388-0.184,1.177-0.307,2.481-0.388c0.012,0,0.026-0.002,0.039-0.002l-2.579-0.489l-0.261-0.049l0.065-0.257l0.141-0.552
			c0.174-0.674,0.436-1.187,0.779-1.522c0.35-0.339,0.905-0.576,1.7-0.723c0.311-0.06,0.652-0.088,1.018-0.088
			c0.535,0,1.138,0.063,1.79,0.188c1.316,0.247,2.289,0.597,2.892,1.042c0.636,0.466,0.973,0.975,0.996,1.513
			c0.022,0.492-0.139,1.406-0.493,2.795l-1.05,4.116L249.11,104.056L249.11,104.056z M245.771,99.507
			c-0.513,0.163-0.662,0.286-0.703,0.335c-0.121,0.149-0.227,0.395-0.315,0.729c-0.133,0.534-0.098,0.672-0.09,0.695
			c0.014,0.037,0.094,0.09,0.268,0.123c0.067,0.012,0.129,0.019,0.182,0.019c0.085,0,0.11-0.019,0.112-0.019
			c0.004-0.004,0.092-0.1,0.223-0.617L245.771,99.507L245.771,99.507z M246.031,96.256c-0.086,0-0.112,0.018-0.112,0.018
			c-0.01,0.01-0.1,0.121-0.25,0.722l-0.194,0.752c0.534-0.057,0.67-0.102,0.705-0.119c0.006-0.008,0.098-0.106,0.203-0.511
			c0.137-0.531,0.092-0.681,0.08-0.705c-0.029-0.065-0.112-0.112-0.251-0.139C246.145,96.262,246.084,96.256,246.031,96.256
			L246.031,96.256z"/>
		<path fill="#603813" d="M245.035,94.423c0.521,0,1.102,0.061,1.743,0.182c1.285,0.243,2.215,0.576,2.791,0.998
			c0.576,0.422,0.875,0.863,0.895,1.323c0.021,0.46-0.142,1.368-0.487,2.723l-1.05,4.117l-3.695-0.7l0.186-0.731
			c-0.307,0.25-0.662,0.413-1.066,0.489c-0.18,0.034-0.371,0.052-0.571,0.052c-0.25,0-0.515-0.027-0.796-0.08
			c-0.664-0.126-1.243-0.364-1.735-0.714c-0.492-0.351-0.633-0.939-0.421-1.768l0.171-0.674c0.157-0.614,0.411-1.004,0.762-1.171
			c0.352-0.167,1.148-0.288,2.39-0.364c1.329-0.085,2.052-0.175,2.168-0.27c0.116-0.095,0.218-0.313,0.305-0.655
			c0.109-0.428,0.132-0.717,0.068-0.865c-0.064-0.148-0.209-0.244-0.435-0.287c-0.085-0.016-0.162-0.024-0.229-0.024
			c-0.135,0-0.232,0.032-0.292,0.097c-0.091,0.097-0.195,0.375-0.311,0.832l-0.219,0.86l-3.564-0.675l0.141-0.55
			c0.162-0.634,0.398-1.103,0.708-1.405c0.31-0.302,0.834-0.521,1.573-0.658C244.36,94.451,244.684,94.423,245.035,94.423
			 M246.122,99.147c-0.683,0.178-1.098,0.356-1.246,0.535c-0.147,0.18-0.269,0.455-0.363,0.826
			c-0.108,0.425-0.136,0.707-0.083,0.846c0.053,0.14,0.205,0.233,0.456,0.281c0.083,0.016,0.159,0.024,0.225,0.024
			c0.123,0,0.215-0.027,0.278-0.081c0.097-0.083,0.198-0.331,0.303-0.743L246.122,99.147 M245.035,93.923
			c-0.379,0-0.737,0.031-1.063,0.091c-0.846,0.157-1.445,0.416-1.831,0.792c-0.375,0.365-0.659,0.917-0.844,1.639l-0.141,0.55
			l-0.132,0.516l0.523,0.099l0.884,0.167c-0.497,0.083-0.738,0.17-0.887,0.241c-0.49,0.232-0.837,0.737-1.032,1.499l-0.172,0.675
			c-0.333,1.3,0.151,1.967,0.616,2.298c0.549,0.391,1.199,0.66,1.932,0.798c0.311,0.059,0.61,0.089,0.89,0.089
			c0.231,0,0.455-0.021,0.665-0.061c0.075-0.014,0.148-0.031,0.22-0.05l-0.049,0.193l0.522,0.099l3.695,0.7l0.461,0.087l0.116-0.455
			l1.05-4.117c0.367-1.437,0.526-2.349,0.502-2.87c-0.027-0.615-0.396-1.189-1.098-1.704c-0.644-0.471-1.623-0.827-2.994-1.086
			C246.203,93.988,245.585,93.923,245.035,93.923L245.035,93.923z M245.808,97.455l0.101-0.396c0.076-0.3,0.133-0.464,0.168-0.55
			c0.03,0.002,0.058,0.007,0.087,0.012c0.027,0.005,0.048,0.011,0.063,0.016c0,0.069-0.012,0.224-0.088,0.521
			c-0.051,0.201-0.097,0.308-0.124,0.36C245.972,97.428,245.907,97.44,245.808,97.455L245.808,97.455z M244.904,101.125
			c0.006-0.073,0.025-0.225,0.094-0.495c0.094-0.37,0.196-0.548,0.265-0.631c0-0.001,0.034-0.033,0.147-0.087l-0.204,0.799
			c-0.061,0.237-0.108,0.372-0.139,0.445c-0.031-0.002-0.059-0.007-0.088-0.012C244.948,101.138,244.923,101.131,244.904,101.125
			L244.904,101.125z"/>
	</g>
	<g>
		<polygon fill="#00FFFF" points="258.114,105.965 257.75,105.865 254.568,104.973 254.399,104.924 254.387,104.748 254.266,102.85 
			253.84,104.502 253.777,104.75 253.531,104.683 250.223,103.756 249.988,103.688 250.049,103.453 252.318,94.558 252.381,94.31 
			252.627,94.377 255.937,95.304 256.172,95.37 256.111,95.607 255.426,98.308 256.306,97.279 256.41,97.156 256.563,97.199 
			259.344,97.979 259.714,98.083 259.468,98.379 257.455,100.824 258.065,105.591 258.114,105.965 		"/>
		<path fill="#603813" d="M252.56,94.618l3.31,0.927l-0.949,3.735l1.575-1.84l2.781,0.779l-2.083,2.528l0.625,4.876l-3.182-0.892
			l-0.221-3.467l-0.815,3.177l-3.309-0.927L252.56,94.618 M252.202,93.999l-0.126,0.496l-2.269,8.896l-0.121,0.473l0.47,0.132
			l3.309,0.927l0.492,0.138l0.127-0.496l0.032-0.125l0.021,0.324l0.022,0.354l0.342,0.096l3.182,0.892l0.727,0.204l-0.096-0.749
			l-0.598-4.662l1.946-2.361l0.488-0.592l-0.739-0.207l-2.781-0.779l-0.307-0.086l-0.208,0.242l-0.184,0.215l0.422-1.662l0.12-0.473
			l-0.47-0.132l-3.31-0.927L252.202,93.999L252.202,93.999z"/>
	</g>
	<g>
		<path fill="#FF00FF" d="M263.385,107.271c-0.094,0-0.19-0.004-0.289-0.012c-0.461-0.039-1.012-0.184-1.64-0.43
			c-0.608-0.235-1.136-0.51-1.573-0.814c-0.446-0.312-0.782-0.635-0.999-0.967c-0.219-0.335-0.35-0.669-0.389-0.993
			c-0.037-0.32,0.008-0.735,0.137-1.233l0.475-1.861c0.154-0.61,0.405-1.056,0.75-1.329c0.319-0.252,0.751-0.381,1.286-0.381
			l0.135,0.002c0.565,0.025,1.189,0.166,1.853,0.424c0.809,0.313,1.462,0.688,1.943,1.114c0.492,0.434,0.807,0.891,0.94,1.36
			c0.131,0.457,0.113,1.026-0.057,1.687l-0.217,0.848l-0.051,0.199h0.002l-0.056,0.215l-0.121,0.471
			c-0.108,0.432-0.233,0.741-0.377,0.948c-0.149,0.221-0.407,0.41-0.782,0.569C264.069,107.209,263.741,107.271,263.385,107.271
			L263.385,107.271z M262.042,103.548l-0.28,1.105c-0.088,0.348-0.062,0.44-0.06,0.444c0.008,0.027,0.06,0.07,0.168,0.113
			c0.1,0.037,0.158,0.045,0.19,0.045c0.037-0.008,0.119-0.08,0.219-0.473l0.215-0.841l0.051-0.199L262.042,103.548L262.042,103.548z
			 M262.433,102.019l0.348,0.137l0.051-0.194c0.104-0.414,0.088-0.53,0.084-0.551c-0.006-0.027-0.051-0.06-0.121-0.086
			c-0.071-0.029-0.117-0.039-0.145-0.043c-0.023,0.049-0.074,0.18-0.154,0.487L262.433,102.019L262.433,102.019z"/>
		<path fill="#603813" d="M261.14,99.5c0.042,0,0.085,0,0.128,0.002c0.539,0.021,1.129,0.156,1.772,0.406
			c0.786,0.306,1.408,0.661,1.866,1.067c0.459,0.406,0.747,0.819,0.866,1.241c0.119,0.421,0.099,0.941-0.059,1.56l-0.216,0.846
			l-3.628-1.411l-0.352,1.38c-0.074,0.289-0.092,0.486-0.052,0.593c0.038,0.107,0.144,0.193,0.315,0.26
			c0.106,0.041,0.198,0.062,0.276,0.062s0.143-0.021,0.192-0.062c0.1-0.083,0.19-0.283,0.271-0.6l0.215-0.842l2.657,1.033
			l-0.12,0.471c-0.101,0.394-0.213,0.684-0.339,0.867s-0.351,0.344-0.676,0.482c-0.256,0.108-0.546,0.163-0.871,0.163
			c-0.087,0-0.178-0.004-0.27-0.012c-0.436-0.037-0.958-0.174-1.568-0.412c-0.592-0.23-1.1-0.493-1.523-0.787
			c-0.423-0.295-0.733-0.595-0.933-0.899c-0.199-0.305-0.316-0.601-0.35-0.887s0.01-0.667,0.131-1.141l0.475-1.861
			c0.142-0.558,0.363-0.956,0.663-1.193C260.287,99.609,260.663,99.5,261.14,99.5 M262.954,102.492l0.12-0.466
			c0.084-0.331,0.113-0.554,0.087-0.669c-0.027-0.116-0.119-0.205-0.276-0.266c-0.105-0.041-0.192-0.062-0.26-0.062
			c-0.057,0-0.102,0.015-0.132,0.044c-0.067,0.063-0.146,0.275-0.237,0.634l-0.119,0.466L262.954,102.492 M261.14,99
			c-0.59,0-1.075,0.146-1.439,0.436c-0.386,0.306-0.667,0.798-0.836,1.461l-0.475,1.861c-0.138,0.54-0.184,0.973-0.143,1.323
			c0.042,0.362,0.187,0.732,0.427,1.102c0.235,0.358,0.593,0.707,1.066,1.036c0.454,0.316,1.001,0.6,1.628,0.843
			c0.661,0.257,1.219,0.403,1.707,0.444c0.107,0.009,0.211,0.014,0.313,0.014c0.39,0,0.749-0.068,1.065-0.202
			c0.418-0.178,0.71-0.394,0.893-0.66c0.16-0.232,0.294-0.567,0.412-1.025l0.12-0.472l0.069-0.269l0.037-0.145l0.216-0.846
			c0.179-0.703,0.198-1.315,0.055-1.819c-0.144-0.513-0.486-1.011-1.016-1.479c-0.5-0.443-1.178-0.833-2.016-1.158
			c-0.692-0.269-1.343-0.417-1.934-0.44C261.238,99.001,261.188,99,261.14,99L261.14,99z M261.95,104.974
			c0.007-0.048,0.021-0.132,0.054-0.258l0.212-0.833l0.032,0.012l-0.211,0.826c-0.03,0.118-0.057,0.2-0.079,0.256
			C261.956,104.976,261.952,104.975,261.95,104.974L261.95,104.974z"/>
	</g>
	<g>
		<path fill="#8C6239" d="M268.122,109.098l-0.279-0.142l-2.301-1.164l-0.178-0.09l0.049-0.194l1.395-5.468l0.076-0.303l0.279,0.142
			l2.299,1.164l0.205,0.104l-0.086,0.213l-0.035,0.086c0.119-0.027,0.242-0.041,0.367-0.041c0.291,0,0.602,0.074,0.926,0.221
			l0.193,0.086l-0.053,0.203l-0.492,1.926l-0.076,0.303l-0.278-0.141c-0.488-0.248-0.74-0.312-0.865-0.32c-0.004,0-0.01,0-0.014,0
			c-0.178,0-0.205,0.037-0.213,0.051c-0.022,0.033-0.117,0.209-0.293,0.901l-0.549,2.16L268.122,109.098L268.122,109.098z"/>
		<path fill="#603813" d="M267.05,102.102l2.3,1.163l-0.274,0.673c0.253-0.188,0.532-0.282,0.837-0.282
			c0.256,0,0.531,0.066,0.823,0.199l-0.491,1.924c-0.421-0.213-0.741-0.328-0.96-0.346c-0.026-0.002-0.052-0.003-0.077-0.003
			c-0.177,0-0.302,0.054-0.375,0.163c-0.082,0.124-0.192,0.451-0.327,0.981l-0.551,2.16l-2.3-1.164L267.05,102.102 M266.72,101.374
			l-0.154,0.604l-1.396,5.469l-0.099,0.389l0.358,0.181l2.3,1.164l0.556,0.281l0.154-0.604l0.551-2.16
			c0.117-0.459,0.192-0.673,0.231-0.766c0.013,0,0.024,0,0.024,0c0.069,0.005,0.284,0.045,0.774,0.293l0.556,0.281l0.154-0.604
			l0.491-1.924l0.104-0.406l-0.381-0.173c-0.349-0.158-0.688-0.239-1.008-0.243l0.053-0.129l-0.412-0.208l-2.3-1.163L266.72,101.374
			L266.72,101.374z"/>
	</g>
</g>
<g id="Layer_1" display="none">
	<path display="inline" fill="#FFFF00" stroke="#603813" stroke-width="1.5" d="M137.007,259.664l-9.617,13.706l-0.876-4.396
		c-0.306-1.533-0.622-2.416-0.949-2.65c-0.327-0.233-0.786,0.069-1.375,0.908c-0.589,0.84-0.937,1.643-1.043,2.409
		s0.007,1.983,0.339,3.649l3.586,17.986c0.271,1.359,0.625,2.164,1.063,2.412s0.952-0.047,1.542-0.887
		c0.689-0.982,1.086-2.003,1.188-3.06c0.103-1.056-0.042-2.571-0.436-4.544l-0.905-4.539l9.087-12.951
		c0.591,3.07,0.949,5.492,1.076,7.267s-0.126,4.14-0.758,7.093c-0.632,2.955-1.633,5.932-3.002,8.927
		c-1.369,2.996-3.181,6.103-5.436,9.315c-2.878,4.1-5.27,6.791-7.176,8.068s-3.41,1.402-4.511,0.377
		c-1.102-1.025-2.022-3.396-2.764-7.111l-2.159-10.832c-0.646-3.237-0.846-6.087-0.602-8.551c0.243-2.462,1.17-5.671,2.78-9.625
		c1.61-3.955,3.753-7.84,6.429-11.652c2.659-3.789,5.059-6.385,7.198-7.788c2.142-1.401,3.718-1.571,4.729-0.504
		C135.431,253.76,136.293,256.082,137.007,259.664z"/>
	<path display="inline" fill="#FF0000" stroke="#603813" stroke-width="1.5" d="M166.81,228.407l1.737,8.716
		c0.638,3.2,0.933,5.722,0.885,7.564c-0.049,1.842-0.512,3.985-1.388,6.429s-2.143,4.872-3.797,7.286
		c-1.656,2.416-3.639,4.789-5.945,7.122c-2.577,2.604-4.813,4.548-6.706,5.828c-1.894,1.281-3.441,1.89-4.644,1.827
		s-2.166-0.635-2.89-1.719c-0.724-1.082-1.388-3.135-1.989-6.156l-1.818-9.117c-0.659-3.307-0.79-6.278-0.391-8.916
		c0.397-2.637,1.484-5.529,3.26-8.678c1.775-3.147,4.221-6.297,7.336-9.445c2.615-2.645,4.933-4.552,6.951-5.723
		c2.02-1.172,3.654-1.691,4.905-1.56s2.187,0.624,2.809,1.479C165.745,224.199,166.307,225.887,166.81,228.407z M154.622,237.508
		c-0.364-1.824-0.698-2.866-1.005-3.125c-0.306-0.26-0.805-0.041-1.497,0.658c-0.692,0.701-1.106,1.404-1.242,2.111
		c-0.137,0.707-0.023,1.973,0.34,3.796l3.203,16.063c0.335,1.681,0.668,2.659,1.001,2.935c0.332,0.277,0.834,0.075,1.508-0.605
		c0.692-0.7,1.103-1.395,1.231-2.083c0.128-0.688,0.039-1.8-0.268-3.339L154.622,237.508z"/>
	<path display="inline" fill="#00FF00" stroke="#603813" stroke-width="1.5" d="M194.358,184.257l8.037,40.314l-11.979,9.658
		l-0.479-2.396c-0.947,1.922-2.004,3.643-3.168,5.162c-1.166,1.519-2.44,2.836-3.824,3.951c-1.857,1.499-3.551,2.386-5.078,2.664
		s-2.592,0.033-3.192-0.734s-1.145-2.373-1.631-4.813l-3.083-15.464c-0.506-2.54-0.672-4.497-0.499-5.87
		c0.174-1.373,0.872-3.02,2.096-4.939c1.223-1.922,2.793-3.654,4.71-5.201c1.482-1.195,2.886-2.066,4.211-2.613
		c1.324-0.547,2.581-0.777,3.768-0.691l-1.867-9.369L194.358,184.257z M185.487,209.504c-0.241-1.211-0.527-1.926-0.857-2.142
		c-0.329-0.216-0.86-0.028-1.591,0.562c-0.712,0.572-1.154,1.146-1.326,1.719c-0.173,0.574-0.13,1.507,0.128,2.802l3.228,16.185
		c0.268,1.345,0.562,2.134,0.884,2.366c0.321,0.231,0.817,0.077,1.49-0.466c0.771-0.621,1.237-1.271,1.4-1.953
		c0.162-0.679,0.06-1.941-0.308-3.783L185.487,209.504z"/>
	<path display="inline" fill="#0000FF" stroke="#603813" stroke-width="1.5" d="M230.16,187.239l-15.241,10.285l1.315,6.597
		c0.275,1.379,0.578,2.183,0.91,2.41c0.332,0.229,0.857,0.1,1.576-0.385c0.894-0.604,1.438-1.271,1.634-2.004
		c0.196-0.73,0.143-1.855-0.159-3.373l-0.802-4.022l11.16-7.532l0.449,2.252c0.376,1.885,0.514,3.435,0.415,4.649
		c-0.101,1.214-0.589,2.771-1.467,4.666c-0.879,1.896-2.11,3.707-3.695,5.428c-1.586,1.723-3.661,3.448-6.226,5.18
		c-2.486,1.678-4.738,2.875-6.755,3.594c-2.018,0.718-3.653,0.939-4.909,0.666s-2.206-0.867-2.851-1.779
		c-0.646-0.912-1.193-2.502-1.646-4.771l-1.773-8.895c-0.531-2.667-0.494-5.078,0.111-7.234c0.606-2.156,1.867-4.346,3.782-6.568
		c1.915-2.222,4.224-4.245,6.924-6.068c3.303-2.229,6.126-3.573,8.47-4.033s4.11-0.167,5.301,0.882
		c1.189,1.049,2.08,3.052,2.669,6.009L230.16,187.239z M217.368,190.239l-0.444-2.229c-0.315-1.578-0.625-2.525-0.931-2.841
		c-0.306-0.314-0.788-0.25-1.448,0.196c-0.816,0.55-1.282,1.086-1.398,1.608c-0.116,0.521-0.004,1.642,0.339,3.357l0.444,2.229
		L217.368,190.239z"/>
	<path display="inline" stroke="#603813" stroke-width="1.5" d="M229.228,151.662l19.471-10.558
		c6.149-3.334,10.879-5.504,14.189-6.51c3.31-1.005,6.155-0.951,8.535,0.164c2.379,1.115,4.05,4.084,5.012,8.908
		c0.65,3.262,0.415,5.909-0.703,7.94c-1.119,2.032-3.634,4.49-7.546,7.375c4.664-1.688,7.975-2.087,9.933-1.199
		s3.3,3.149,4.023,6.783l1.032,5.174c0.752,3.772,0.729,6.881-0.067,9.325c-0.797,2.446-2.396,4.689-4.797,6.729
		c-2.402,2.042-7.527,5.189-15.378,9.446l-22.576,12.241L229.228,151.662z M250.648,150.63l2.474,12.412
		c0.831-0.475,1.478-0.839,1.94-1.09c1.916-1.039,3.066-2.051,3.453-3.038c0.385-0.985,0.249-3.134-0.411-6.444
		c-0.349-1.746-0.809-2.853-1.381-3.319c-0.573-0.466-1.225-0.604-1.957-0.41S252.661,149.564,250.648,150.63z M254.854,171.73
		l3.114,15.618c2.736-1.56,4.426-2.833,5.069-3.818c0.642-0.984,0.739-2.604,0.29-4.856l-1.038-5.206
		c-0.477-2.39-1.105-3.653-1.886-3.791C259.623,169.541,257.773,170.225,254.854,171.73z"/>
	<path display="inline" fill="#FFFFFF" stroke="#603813" stroke-width="1.5" d="M296.646,135.344l0.283,4.235
		c1.32-3.691,3.759-6.399,7.318-8.124l2.14,10.734c-2.389,1.033-4.095,2.022-5.121,2.965c-1.028,0.945-1.588,1.882-1.684,2.813
		c-0.094,0.932,0.154,2.876,0.743,5.833l2.401,12.044l-13.035,5.643l-6.08-30.502L296.646,135.344z"/>
	<path display="inline" fill="#F7931E" stroke="#603813" stroke-width="1.5" d="M336.56,136.777l-15.161,5.383l1.15,5.772
		c0.241,1.207,0.521,1.94,0.842,2.199c0.321,0.26,0.839,0.262,1.554,0.008c0.89-0.316,1.438-0.758,1.645-1.327
		c0.208-0.569,0.179-1.517-0.086-2.844l-0.701-3.52l11.103-3.942l0.394,1.971c0.328,1.649,0.432,2.97,0.308,3.961
		c-0.122,0.992-0.634,2.186-1.536,3.582c-0.901,1.396-2.146,2.646-3.737,3.75s-3.662,2.107-6.214,3.013
		c-2.474,0.878-4.706,1.405-6.699,1.582c-1.993,0.177-3.603,0.02-4.828-0.472c-1.225-0.491-2.146-1.184-2.758-2.079
		c-0.612-0.896-1.117-2.334-1.514-4.319l-1.551-7.783c-0.466-2.333-0.379-4.334,0.261-6.004c0.641-1.67,1.923-3.23,3.848-4.682
		c1.925-1.451,4.231-2.654,6.917-3.607c3.285-1.167,6.082-1.696,8.39-1.59c2.308,0.107,4.034,0.722,5.18,1.845
		c1.145,1.123,1.975,2.978,2.49,5.565L336.56,136.777z M323.952,136.601l-0.389-1.951c-0.275-1.38-0.559-2.234-0.853-2.562
		c-0.292-0.327-0.767-0.374-1.424-0.14c-0.812,0.288-1.28,0.638-1.405,1.048s-0.038,1.367,0.262,2.869l0.389,1.951L323.952,136.601z
		"/>
	<path display="inline" fill="#93278F" stroke="#603813" stroke-width="1.5" d="M348.688,129.812l-9.659,2.563l-0.306-1.534
		c-0.353-1.77-0.323-3.215,0.089-4.334c0.411-1.12,1.453-2.289,3.125-3.506c1.671-1.218,3.959-2.212,6.864-2.983
		c3.483-0.924,6.19-1.204,8.124-0.84c1.934,0.364,3.199,1.105,3.797,2.224c0.599,1.118,1.275,3.567,2.029,7.348l2.289,11.481
		l-10.016,2.658l-0.406-2.039c-0.466,0.984-1.155,1.813-2.068,2.485c-0.912,0.672-2.057,1.191-3.433,1.556
		c-1.801,0.478-3.521,0.574-5.161,0.29c-1.641-0.285-2.69-1.582-3.15-3.892l-0.375-1.879c-0.342-1.712-0.175-2.985,0.5-3.817
		c0.675-0.832,2.511-2.082,5.505-3.748c3.202-1.793,4.892-2.877,5.067-3.25s0.169-1.037-0.021-1.991
		c-0.238-1.194-0.525-1.938-0.86-2.23c-0.337-0.292-0.81-0.357-1.422-0.195c-0.696,0.185-1.1,0.453-1.208,0.802
		c-0.109,0.35-0.037,1.163,0.218,2.438L348.688,129.812z M352.575,132.083c-1.485,1.253-2.305,2.19-2.458,2.812
		c-0.154,0.622-0.127,1.45,0.079,2.484c0.236,1.184,0.503,1.917,0.801,2.201c0.298,0.284,0.787,0.336,1.467,0.155
		c0.646-0.171,1.039-0.418,1.18-0.74c0.143-0.321,0.099-1.057-0.131-2.207L352.575,132.083z"/>
	<path display="inline" fill="#00FFFF" stroke="#603813" stroke-width="1.5" d="M384.161,114.126l-2.171,8.762l7.356,11.375
		l-8.969,1.57l-4.676-8.354l1.755,8.864l-9.326,1.634l-4.946-24.809l9.327-1.634l2.087,10.412l1.726-6.448L384.161,114.126z"/>
	<path display="inline" fill="#FF00FF" stroke="#603813" stroke-width="1.5" d="M407.242,122.635l-10.694,0.811l0.768,3.848
		c0.16,0.805,0.352,1.317,0.576,1.535c0.223,0.22,0.587,0.31,1.092,0.271c0.626-0.048,1.015-0.233,1.165-0.558
		c0.149-0.325,0.137-0.929-0.04-1.813l-0.468-2.347l7.831-0.594l0.263,1.314c0.219,1.099,0.282,1.952,0.188,2.558
		c-0.095,0.606-0.462,1.273-1.105,2.003c-0.645,0.729-1.528,1.307-2.654,1.732c-1.127,0.426-2.589,0.707-4.389,0.843
		c-1.744,0.132-3.319,0.083-4.721-0.146c-1.401-0.229-2.531-0.604-3.39-1.125c-0.857-0.521-1.499-1.116-1.923-1.787
		s-0.769-1.668-1.032-2.991l-1.034-5.189c-0.311-1.556-0.235-2.807,0.228-3.754c0.461-0.946,1.374-1.715,2.737-2.303
		c1.363-0.589,2.991-0.955,4.887-1.1c2.317-0.175,4.287-0.032,5.908,0.431c1.622,0.463,2.83,1.146,3.627,2.053
		c0.797,0.905,1.366,2.221,1.71,3.946L407.242,122.635z M398.383,120.367l-0.259-1.301c-0.184-0.92-0.377-1.51-0.58-1.766
		c-0.204-0.257-0.538-0.368-1.001-0.333c-0.572,0.043-0.904,0.184-0.995,0.423c-0.091,0.238-0.036,0.858,0.164,1.859l0.259,1.3
		L398.383,120.367z"/>
	<path display="inline" fill="#8C6239" stroke="#603813" stroke-width="1.5" d="M415.198,114.678l0.118,2
		c0.745-1.414,2.087-2.142,4.027-2.185l1.069,5.367c-1.3-0.028-2.232,0.066-2.796,0.283c-0.563,0.217-0.874,0.528-0.934,0.936
		c-0.058,0.406,0.06,1.35,0.354,2.828l1.2,6.022l-7.1-0.154l-3.04-15.25L415.198,114.678z"/>
</g>
</svg>
